<?xml version="1.0" encoding="UTF-8" standalone="no"?>
<!-- Created with Inkscape (http://www.inkscape.org/) -->

<svg
   xmlns:dc="http://purl.org/dc/elements/1.1/"
   xmlns:cc="http://creativecommons.org/ns#"
   xmlns:rdf="http://www.w3.org/1999/02/22-rdf-syntax-ns#"
   xmlns:svg="http://www.w3.org/2000/svg"
   xmlns="http://www.w3.org/2000/svg"
   xmlns:xlink="http://www.w3.org/1999/xlink"
   xmlns:sodipodi="http://sodipodi.sourceforge.net/DTD/sodipodi-0.dtd"
   xmlns:inkscape="http://www.inkscape.org/namespaces/inkscape"
   width="744.09448819"
   height="1052.3622047"
   id="svg2"
   version="1.1"
   inkscape:version="0.48.2 r9819"
   sodipodi:docname="grabber.svg">
  <defs
     id="defs4">
    <linearGradient
       id="linearGradient3822">
      <stop
         style="stop-color:#5ef056;stop-opacity:1;"
         offset="0"
         id="stop3824" />
      <stop
         id="stop3840"
         offset="0.07193689"
         style="stop-color:#00ff05;stop-opacity:0.98431373;" />
      <stop
         id="stop3838"
         offset="0.14387378"
         style="stop-color:#00ff04;stop-opacity:0.96862745;" />
      <stop
         id="stop3836"
         offset="0.28774756"
         style="stop-color:#00ff17;stop-opacity:0.93725491;" />
      <stop
         id="stop3834"
         offset="0.57549512"
         style="stop-color:#00ff21;stop-opacity:0.87450981;" />
      <stop
         id="stop3832"
         offset="0.63118815"
         style="stop-color:#d9ffdc;stop-opacity:0.74901962;" />
      <stop
         id="stop3830"
         offset="0.95049506"
         style="stop-color:#00ff0b;stop-opacity:0.49803922;" />
      <stop
         style="stop-color:#000000;stop-opacity:0.94444442;"
         offset="1"
         id="stop3826" />
    </linearGradient>
    <linearGradient
       id="linearGradient3802">
      <stop
         style="stop-color:#000000;stop-opacity:1;"
         offset="0"
         id="stop3804" />
      <stop
         style="stop-color:#043339;stop-opacity:1;"
         offset="1"
         id="stop3806" />
    </linearGradient>
    <linearGradient
       id="linearGradient3790">
      <stop
         style="stop-color:#0e1b1b;stop-opacity:1;"
         offset="0"
         id="stop3792" />
      <stop
         id="stop3800"
         offset="0.23540515"
         style="stop-color:#122a2a;stop-opacity:1;" />
      <stop
         id="stop3798"
         offset="0.79676199"
         style="stop-color:#183434;stop-opacity:1;" />
      <stop
         style="stop-color:#075151;stop-opacity:1;"
         offset="1"
         id="stop3794" />
    </linearGradient>
    <linearGradient
       inkscape:collect="always"
       xlink:href="#linearGradient3790"
       id="linearGradient3796"
       x1="-1792.9561"
       y1="111.73285"
       x2="-1124.0143"
       y2="111.73285"
       gradientUnits="userSpaceOnUse" />
    <linearGradient
       inkscape:collect="always"
       xlink:href="#linearGradient3802"
       id="linearGradient3808"
       x1="-1752.4244"
       y1="109.70615"
       x2="-1144.3473"
       y2="109.70615"
       gradientUnits="userSpaceOnUse" />
    <linearGradient
       inkscape:collect="always"
       xlink:href="#linearGradient3790"
       id="linearGradient3820"
       x1="-1573.9686"
       y1="254.76344"
       x2="-1282.2336"
       y2="-54.526634"
       gradientUnits="userSpaceOnUse" />
    <radialGradient
       inkscape:collect="always"
       xlink:href="#linearGradient3822"
       id="radialGradient3828"
       cx="-1452.5994"
       cy="116.96093"
       fx="-1452.5994"
       fy="116.96093"
       r="204.05081"
       gradientUnits="userSpaceOnUse" />
    <linearGradient
       inkscape:collect="always"
       xlink:href="#linearGradient3802"
       id="linearGradient3963"
       gradientUnits="userSpaceOnUse"
       x1="-1752.4244"
       y1="109.70615"
       x2="-1144.3473"
       y2="109.70615" />
    <linearGradient
       inkscape:collect="always"
       xlink:href="#linearGradient3790"
       id="linearGradient3965"
       gradientUnits="userSpaceOnUse"
       x1="-1792.9561"
       y1="111.73285"
       x2="-1124.0143"
       y2="111.73285" />
    <linearGradient
       inkscape:collect="always"
       xlink:href="#linearGradient3790"
       id="linearGradient3967"
       gradientUnits="userSpaceOnUse"
       x1="-1573.9686"
       y1="254.76344"
       x2="-1282.2336"
       y2="-54.526634" />
    <radialGradient
       inkscape:collect="always"
       xlink:href="#linearGradient3822"
       id="radialGradient3969"
       gradientUnits="userSpaceOnUse"
       cx="-1452.5994"
       cy="116.96093"
       fx="-1452.5994"
       fy="116.96093"
       r="204.05081" />
    <linearGradient
       inkscape:collect="always"
       xlink:href="#linearGradient3802"
       id="linearGradient3971"
       gradientUnits="userSpaceOnUse"
       x1="-1752.4244"
       y1="109.70615"
       x2="-1144.3473"
       y2="109.70615" />
    <linearGradient
       inkscape:collect="always"
       xlink:href="#linearGradient3790"
       id="linearGradient3973"
       gradientUnits="userSpaceOnUse"
       x1="-1792.9561"
       y1="111.73285"
       x2="-1124.0143"
       y2="111.73285" />
    <linearGradient
       inkscape:collect="always"
       xlink:href="#linearGradient3790"
       id="linearGradient3975"
       gradientUnits="userSpaceOnUse"
       x1="-1573.9686"
       y1="254.76344"
       x2="-1282.2336"
       y2="-54.526634" />
    <radialGradient
       inkscape:collect="always"
       xlink:href="#linearGradient3822"
       id="radialGradient3977"
       gradientUnits="userSpaceOnUse"
       cx="-1452.5994"
       cy="116.96093"
       fx="-1452.5994"
       fy="116.96093"
       r="204.05081" />
    <linearGradient
       inkscape:collect="always"
       xlink:href="#linearGradient3790"
       id="linearGradient3996"
       gradientUnits="userSpaceOnUse"
       x1="-1792.9561"
       y1="111.73285"
       x2="-1124.0143"
       y2="111.73285" />
    <linearGradient
       inkscape:collect="always"
       xlink:href="#linearGradient3802"
       id="linearGradient3999"
       gradientUnits="userSpaceOnUse"
       x1="-1752.4244"
       y1="109.70615"
       x2="-1144.3473"
       y2="109.70615" />
    <linearGradient
       inkscape:collect="always"
       xlink:href="#linearGradient3802"
       id="linearGradient3088"
       gradientUnits="userSpaceOnUse"
       x1="-1752.4244"
       y1="109.70615"
       x2="-1144.3473"
       y2="109.70615" />
    <linearGradient
       inkscape:collect="always"
       xlink:href="#linearGradient3790"
       id="linearGradient3090"
       gradientUnits="userSpaceOnUse"
       x1="-1792.9561"
       y1="111.73285"
       x2="-1124.0143"
       y2="111.73285" />
    <linearGradient
       inkscape:collect="always"
       xlink:href="#linearGradient3790"
       id="linearGradient3092"
       gradientUnits="userSpaceOnUse"
       x1="-1573.9686"
       y1="254.76344"
       x2="-1282.2336"
       y2="-54.526634" />
    <radialGradient
       inkscape:collect="always"
       xlink:href="#linearGradient3822"
       id="radialGradient3094"
       gradientUnits="userSpaceOnUse"
       cx="-1452.5994"
       cy="116.96093"
       fx="-1452.5994"
       fy="116.96093"
       r="204.05081" />
    <linearGradient
       inkscape:collect="always"
       xlink:href="#linearGradient3802"
       id="linearGradient3115"
       gradientUnits="userSpaceOnUse"
       x1="-1752.4244"
       y1="109.70615"
       x2="-1144.3473"
       y2="109.70615" />
    <linearGradient
       inkscape:collect="always"
       xlink:href="#linearGradient3790"
       id="linearGradient3117"
       gradientUnits="userSpaceOnUse"
       x1="-1792.9561"
       y1="111.73285"
       x2="-1124.0143"
       y2="111.73285" />
    <linearGradient
       inkscape:collect="always"
       xlink:href="#linearGradient3790"
       id="linearGradient3119"
       gradientUnits="userSpaceOnUse"
       x1="-1573.9686"
       y1="254.76344"
       x2="-1282.2336"
       y2="-54.526634" />
    <radialGradient
       inkscape:collect="always"
       xlink:href="#linearGradient3822"
       id="radialGradient3121"
       gradientUnits="userSpaceOnUse"
       cx="-1452.5994"
       cy="116.96093"
       fx="-1452.5994"
       fy="116.96093"
       r="204.05081" />
    <linearGradient
       inkscape:collect="always"
       xlink:href="#linearGradient3790"
       id="linearGradient3140"
       gradientUnits="userSpaceOnUse"
       x1="-1792.9561"
       y1="111.73285"
       x2="-1124.0143"
       y2="111.73285" />
    <linearGradient
       inkscape:collect="always"
       xlink:href="#linearGradient3802"
       id="linearGradient3143"
       gradientUnits="userSpaceOnUse"
       x1="-1752.4244"
       y1="109.70615"
       x2="-1144.3473"
       y2="109.70615" />
    <linearGradient
       inkscape:collect="always"
       xlink:href="#linearGradient3790"
       id="linearGradient3916"
       gradientUnits="userSpaceOnUse"
       x1="-1792.9561"
       y1="111.73285"
       x2="-1124.0143"
       y2="111.73285" />
    <linearGradient
       inkscape:collect="always"
       xlink:href="#linearGradient3790"
       id="linearGradient3919"
       gradientUnits="userSpaceOnUse"
       x1="-1792.9561"
       y1="111.73285"
       x2="-1124.0143"
       y2="111.73285" />
  </defs>
  <sodipodi:namedview
     id="base"
     pagecolor="#ffffff"
     bordercolor="#666666"
     borderopacity="1.0"
     inkscape:pageopacity="0.0"
     inkscape:pageshadow="2"
     inkscape:zoom="0.24748737"
     inkscape:cx="-2063.3666"
     inkscape:cy="754.7859"
     inkscape:document-units="px"
     inkscape:current-layer="layer1"
     showgrid="false"
     inkscape:window-width="1440"
     inkscape:window-height="806"
     inkscape:window-x="0"
     inkscape:window-y="0"
     inkscape:window-maximized="0" />
  <metadata
     id="metadata7">
    <rdf:RDF>
      <cc:Work
         rdf:about="">
        <dc:format>image/svg+xml</dc:format>
        <dc:type
           rdf:resource="http://purl.org/dc/dcmitype/StillImage" />
        <dc:title />
      </cc:Work>
    </rdf:RDF>
  </metadata>
  <g
     inkscape:label="Layer 1"
     inkscape:groupmode="layer"
     id="layer1">
    <path
       style="fill:none;stroke:#000000;stroke-width:1px;stroke-linecap:butt;stroke-linejoin:miter;stroke-opacity:1"
       d="m -480,500.93361 340,-340 -344.28571,-344.28571 c 31.8956,244.989213 33.58013,425.31344 4.28571,684.28571 z"
       id="path2985"
       inkscape:connector-curvature="0"
       sodipodi:nodetypes="cccc" />
    <path
       sodipodi:nodetypes="ccccc"
       inkscape:connector-curvature="0"
       id="path3770"
       d="m -4696.6273,-861.03307 c 219.8071,1.62143 519.4785,0.19286 762.8571,0 45.1201,45.12015 45.1201,146.30842 0,191.42857 -241.95,1.95 -555.1928,-3.05 -762.8571,0 -45.1201,-45.12015 -45.1201,-146.30842 0,-191.42857 z"
       style="fill:#183434;fill-opacity:0.98672569;stroke:none" />
    <path
       style="fill:#183434;fill-opacity:0.98672569;stroke:none"
       d="m -4696.6273,-603.78099 c 219.8071,1.62143 519.4785,0.19286 762.8571,0 45.1201,45.12015 45.1201,146.30842 0,191.42857 -241.95,1.95 -555.1928,-3.05 -762.8571,0 -45.1201,-45.12015 -45.1201,-146.30842 0,-191.42857 z"
       id="path3772"
       inkscape:connector-curvature="0"
       sodipodi:nodetypes="ccccc" />
    <path
       sodipodi:nodetypes="ccccc"
       inkscape:connector-curvature="0"
       id="path3774"
       d="m -4696.6273,-346.5288 c 219.8071,1.62143 519.4785,0.19286 762.8571,0 45.1201,45.12015 45.1201,146.30842 0,191.42857 -241.95,1.95 -555.1928,-3.05 -762.8571,0 -45.1201,-45.12015 -45.1201,-146.30842 0,-191.42857 z"
       style="fill:#183434;fill-opacity:0.98672569;stroke:none" />
    <path
       style="fill:#183434;fill-opacity:0.98672569;stroke:none"
       d="m -4696.6273,-89.276607 c 219.8071,1.62143 519.4785,0.19286 762.8571,0 45.1201,45.12015 45.1201,146.308422 0,191.428577 -241.95,1.95 -555.1928,-3.050005 -762.8571,0 -45.1201,-45.120155 -45.1201,-146.308427 0,-191.428577 z"
       id="path3776"
       inkscape:connector-curvature="0"
       sodipodi:nodetypes="ccccc" />
    <path
       sodipodi:nodetypes="ccccc"
       inkscape:connector-curvature="0"
       id="path3778"
       d="m -4696.6273,167.97559 c 219.8071,1.62143 519.4785,0.19286 762.8571,0 45.1201,45.12015 45.1201,146.30842 0,191.42857 -241.95,1.95 -555.1928,-3.05 -762.8571,0 -45.1201,-45.12015 -45.1201,-146.30842 0,-191.42857 z"
       style="fill:#183434;fill-opacity:0.98672569;stroke:none" />
    <path
       style="fill:#183434;fill-opacity:0.98672569;stroke:none"
       d="m -4696.6273,425.22773 c 219.8071,1.62143 519.4785,0.19286 762.8571,0 45.1201,45.12015 45.1201,146.30843 0,191.42858 -241.95,1.95 -555.1928,-3.05 -762.8571,0 -45.1201,-45.12015 -45.1201,-146.30843 0,-191.42858 z"
       id="path3780"
       inkscape:connector-curvature="0"
       sodipodi:nodetypes="ccccc" />
    <path
       sodipodi:nodetypes="ccccc"
       inkscape:connector-curvature="0"
       id="path3782"
       d="m -4700.6679,682.4799 c 219.8071,1.62143 519.4785,0.19286 762.8571,0 45.1201,45.12015 45.1201,146.30842 0,191.42857 -241.95,1.95 -555.1928,-3.05 -762.8571,0 -45.1201,-45.12015 -45.1201,-146.30842 0,-191.42857 z"
       style="fill:#183434;fill-opacity:0.98672569;stroke:none" />
    <g
       id="g3921">
      <path
         style="fill:url(#linearGradient3143);fill-opacity:1;stroke:none"
         d="m -1144.3473,-793.16597 c -5.1379,520.3011 -0.6112,1229.64751 0,1805.74427 -142.9774,106.8029 -463.6239,106.8029 -606.6014,0 -6.1792,-572.71515 9.6649,-1314.18616 0,-1805.74427 142.9775,-106.80293 463.624,-106.80293 606.6014,0 z"
         id="path3786"
         inkscape:connector-curvature="0"
         sodipodi:nodetypes="ccccc" />
      <path
         id="rect2987"
         d="m -1843.9688,-755.96875 c -45.12,45.12015 -45.1201,146.2861 0,191.40625 207.6644,-3.05 520.9251,1.95 762.875,0 45.1203,-45.12015 45.1202,-146.2861 0,-191.40625 -243.3784,0.19286 -543.0679,1.62143 -762.875,0 z m 0,257.25 c -45.12,45.12015 -45.1201,146.31735 0,191.4375 207.6644,-3.05 520.9251,1.95 762.875,0 45.1203,-45.12015 45.1202,-146.31735 0,-191.4375 -243.3784,0.19286 -543.0679,1.62143 -762.875,0 z m 0,257.25 c -45.12,45.12015 -45.1201,146.31735 0,191.4375 207.6644,-3.05 520.9251,1.95 762.875,0 45.1203,-45.12015 45.1202,-146.31735 0,-191.4375 -243.3784,0.19286 -543.0679,1.62143 -762.875,0 z m 0,257.25 c -45.12,45.12015 -45.1201,146.31735 0,191.4375 207.6644,-3.05 520.9251,1.95 762.875,0 45.1203,-45.12015 45.1202,-146.31735 0,-191.4375 -243.3784,0.19286 -543.0679,1.62143 -762.875,0 z m 0,257.25 c -45.12,45.12015 -45.1201,146.31735 0,191.4375 207.6644,-3.05 520.9251,1.95 762.875,0 45.1203,-45.12015 45.1202,-146.31735 0,-191.4375 -243.3784,0.19286 -543.0679,1.62143 -762.875,0 z m 0,257.25 c -45.12,45.12015 -45.1201,146.31735 0,191.4375 207.6644,-3.05 520.9251,1.95 762.875,0 45.1203,-45.12015 45.1202,-146.31735 0,-191.4375 -243.3784,0.19286 -543.0679,1.62143 -762.875,0 z m 0,257.25 c -45.12,45.12015 -45.1201,146.31735 0,191.4375 207.6644,-3.05 520.9251,1.95 762.875,0 45.1203,-45.12015 45.1202,-146.31735 0,-191.4375 -243.3784,0.19286 -543.0679,1.62143 -762.875,0 z"
         style="fill:url(#linearGradient3919);fill-opacity:1;stroke:none"
         inkscape:connector-curvature="0" />
      <path
         inkscape:connector-curvature="0"
         id="path3858"
         d="m -1468.5714,295.21932 c 0,0 342.8571,-2.85714 364.2857,0 21.4286,2.85715 40,20 41.4286,37.14286 1.4285,17.14286 -18.5715,35.7143 -38.5715,25.7143 -20,-10.00001 -52.8571,-24.28573 -132.8571,-22.85716 -80,1.42858 -151.4286,1.42858 -194.2857,-4.28571 -42.8572,-5.71429 -40,-35.71429 -40,-35.71429 z"
         style="fill:#ffffff;fill-opacity:0.07211537;stroke:none" />
      <path
         style="fill:#000000;fill-opacity:0.15865383;stroke:none"
         d="m -1702.8571,212.36218 555.7142,-4.28572 0,25.71429 c 0,0 -117.1428,-2.85714 -242.8571,11.42857 -125.7143,14.28571 -180,27.14286 -180,27.14286 l -144.2857,1.42857 0,-57.14286 z"
         id="path3856"
         inkscape:connector-curvature="0" />
      <path
         inkscape:connector-curvature="0"
         id="path3852"
         d="m -1702.8571,-44.780673 555.7142,-4.28572 0,25.71429 c 0,0 -117.1428,-2.85714 -242.8571,11.42857 -125.7143,14.2857103 -180,27.14286 -180,27.14286 l -144.2857,1.42857 0,-57.14286 z"
         style="fill:#000000;fill-opacity:0.15865383;stroke:none" />
      <path
         style="fill:#ffffff;fill-opacity:0.07211537;stroke:none"
         d="m -1468.5714,39.505037 c 0,0 342.8571,-2.85714 364.2857,0 21.4286,2.85715 40,20 41.4286,37.14286 1.4285,17.14286 -18.5715,35.714293 -38.5715,25.714293 -20,-10.000003 -52.8571,-24.285723 -132.8571,-22.857153 -80,1.42858 -151.4286,1.42858 -194.2857,-4.28571 -42.8572,-5.71429 -40,-35.71429 -40,-35.71429 z"
         id="path3854"
         inkscape:connector-curvature="0" />
      <path
         transform="matrix(1.3194786,0,0,1.3194786,464.07463,-37.366532)"
         sodipodi:type="arc"
         style="color:#000000;fill:url(#linearGradient3119);fill-opacity:1;fill-rule:evenodd;stroke:none;stroke-width:1px;marker:none;visibility:visible;display:inline;overflow:visible;enable-background:accumulate"
         id="path3812"
         sodipodi:cx="-1452.5994"
         sodipodi:cy="116.96093"
         sodipodi:rx="204.05081"
         sodipodi:ry="204.05081"
         d="m -1248.5486,116.96093 a 204.05081,204.05081 0 1 1 -408.1016,0 204.05081,204.05081 0 1 1 408.1016,0 z" />
      <path
         d="m -1248.5486,116.96093 a 204.05081,204.05081 0 1 1 -408.1016,0 204.05081,204.05081 0 1 1 408.1016,0 z"
         sodipodi:ry="204.05081"
         sodipodi:rx="204.05081"
         sodipodi:cy="116.96093"
         sodipodi:cx="-1452.5994"
         id="path3810"
         style="color:#000000;fill:url(#radialGradient3121);fill-opacity:1;fill-rule:evenodd;stroke:none;stroke-width:1px;marker:none;visibility:visible;display:inline;overflow:visible;enable-background:accumulate"
         sodipodi:type="arc" />
      <path
         inkscape:connector-curvature="0"
         id="path3842"
         d="m -1468.5714,-734.78068 c 0,0 342.8571,-2.85714 364.2857,0 21.4286,2.85715 40,20 41.4286,37.14286 1.4285,17.14286 -18.5715,35.71429 -38.5715,25.71429 -20,-10 -52.8571,-24.28572 -132.8571,-22.85715 -80,1.42858 -151.4286,1.42858 -194.2857,-4.28571 -42.8572,-5.71429 -40,-35.71429 -40,-35.71429 z"
         style="fill:#ffffff;fill-opacity:0.07211537;stroke:none" />
      <path
         inkscape:connector-curvature="0"
         id="path3844"
         d="m -1702.8571,-561.92353 555.7142,-4.28572 0,25.71429 c 0,0 -117.1428,-2.85714 -242.8571,11.42857 -125.7143,14.28571 -180,27.14286 -180,27.14286 l -144.2857,1.42857 0,-57.14286 z"
         style="fill:#000000;fill-opacity:0.15865383;stroke:none" />
      <path
         style="fill:#ffffff;fill-opacity:0.07211537;stroke:none"
         d="m -1468.5714,-474.78068 c 0,0 342.8571,-2.85714 364.2857,0 21.4286,2.85715 40,20 41.4286,37.14286 1.4285,17.14286 -18.5715,35.71429 -38.5715,25.71429 -20,-10 -52.8571,-24.28572 -132.8571,-22.85715 -80,1.42858 -151.4286,1.42858 -194.2857,-4.28571 -42.8572,-5.71429 -40,-35.71429 -40,-35.71429 z"
         id="path3846"
         inkscape:connector-curvature="0" />
      <path
         style="fill:#000000;fill-opacity:0.15865383;stroke:none"
         d="m -1702.8571,-301.92353 555.7142,-4.28572 0,25.71429 c 0,0 -117.1428,-2.85714 -242.8571,11.42857 -125.7143,14.28571 -180,27.14286 -180,27.14286 l -144.2857,1.42857 0,-57.14286 z"
         id="path3848"
         inkscape:connector-curvature="0" />
      <path
         inkscape:connector-curvature="0"
         id="path3850"
         d="m -1468.5714,-217.63782 c 0,0 342.8571,-2.85714 364.2857,0 21.4286,2.85715 40,20 41.4286,37.14286 1.4285,17.14286 -18.5715,35.71429 -38.5715,25.71429 -20,-10 -52.8571,-24.28572 -132.8571,-22.85715 -80,1.42858 -151.4286,1.42858 -194.2857,-4.28571 -42.8572,-5.71429 -40,-35.71429 -40,-35.71429 z"
         style="fill:#ffffff;fill-opacity:0.07211537;stroke:none" />
      <path
         inkscape:connector-curvature="0"
         id="path3860"
         d="m -1702.8571,468.07647 555.7142,-4.28572 0,25.71429 c 0,0 -117.1428,-2.85714 -242.8571,11.42857 -125.7143,14.28571 -180,27.14286 -180,27.14286 l -144.2857,1.42857 0,-57.14286 z"
         style="fill:#000000;fill-opacity:0.15865383;stroke:none" />
      <path
         style="fill:#ffffff;fill-opacity:0.07211537;stroke:none"
         d="m -1468.5714,552.36218 c 0,0 342.8571,-2.85714 364.2857,0 21.4286,2.85715 40,20 41.4286,37.14286 1.4285,17.14286 -18.5715,35.7143 -38.5715,25.7143 -20,-10.00001 -52.8571,-24.28573 -132.8571,-22.85716 -80,1.42858 -151.4286,1.42858 -194.2857,-4.28571 -42.8572,-5.71429 -40,-35.71429 -40,-35.71429 z"
         id="path3862"
         inkscape:connector-curvature="0" />
      <path
         style="fill:#000000;fill-opacity:0.15865383;stroke:none"
         d="m -1702.8571,725.21933 555.7142,-4.28572 0,25.71429 c 0,0 -117.1428,-2.85714 -242.8571,11.42857 -125.7143,14.28571 -180,27.14286 -180,27.14286 l -144.2857,1.42857 0,-57.14286 z"
         id="path3864"
         inkscape:connector-curvature="0" />
      <path
         inkscape:connector-curvature="0"
         id="path3866"
         d="m -1468.5714,810.93361 c 0,0 342.8571,-2.85714 364.2857,0 21.4286,2.85715 40,20 41.4286,37.14286 1.4285,17.14286 -18.5715,35.7143 -38.5715,25.7143 -20,-10.00001 -52.8571,-24.28573 -132.8571,-22.85716 -80,1.42858 -151.4286,1.42858 -194.2857,-4.28571 -42.8572,-5.71429 -40,-35.71429 -40,-35.71429 z"
         style="fill:#ffffff;fill-opacity:0.07211537;stroke:none" />
      <path
         inkscape:connector-curvature="0"
         id="path3868"
         d="m -1702.8571,983.79076 555.7142,-4.28572 0,25.71426 c 0,0 -117.1428,-2.8571 -242.8571,11.4286 -125.7143,14.2857 -180,27.1429 -180,27.1429 l -144.2857,1.4285 0,-57.14283 z"
         style="fill:#000000;fill-opacity:0.15865383;stroke:none" />
    </g>
    <g
       id="g3925"
       transform="translate(1817.1429,-1577.1429)"
       inkscape:export-filename="/Users/andersbr/rails/sorcery/app/assets/images/grabber_active.png"
       inkscape:export-xdpi="2.2889714"
       inkscape:export-ydpi="2.2889714">
      <path
         sodipodi:nodetypes="ccccc"
         inkscape:connector-curvature="0"
         id="path3927"
         d="m -1144.3473,-793.16597 c -5.1379,520.3011 -0.6112,1229.64751 0,1805.74427 -142.9774,106.8029 -463.6239,106.8029 -606.6014,0 -6.1792,-572.71515 9.6649,-1314.18616 0,-1805.74427 142.9775,-106.80293 463.624,-106.80293 606.6014,0 z"
         style="fill:url(#linearGradient3963);fill-opacity:1;stroke:none" />
      <path
         style="fill:url(#linearGradient3965);fill-opacity:1;stroke:none"
         d="m -1843.9688,-755.96875 c -45.12,45.12015 -45.1201,146.2861 0,191.40625 207.6644,-3.05 520.9251,1.95 762.875,0 45.1203,-45.12015 45.1202,-146.2861 0,-191.40625 -243.3784,0.19286 -543.0679,1.62143 -762.875,0 z m 0,257.25 c -45.12,45.12015 -45.1201,146.31735 0,191.4375 207.6644,-3.05 520.9251,1.95 762.875,0 45.1203,-45.12015 45.1202,-146.31735 0,-191.4375 -243.3784,0.19286 -543.0679,1.62143 -762.875,0 z m 0,257.25 c -45.12,45.12015 -45.1201,146.31735 0,191.4375 207.6644,-3.05 520.9251,1.95 762.875,0 45.1203,-45.12015 45.1202,-146.31735 0,-191.4375 -243.3784,0.19286 -543.0679,1.62143 -762.875,0 z m 0,257.25 c -45.12,45.12015 -45.1201,146.31735 0,191.4375 207.6644,-3.05 520.9251,1.95 762.875,0 45.1203,-45.12015 45.1202,-146.31735 0,-191.4375 -243.3784,0.19286 -543.0679,1.62143 -762.875,0 z m 0,257.25 c -45.12,45.12015 -45.1201,146.31735 0,191.4375 207.6644,-3.05 520.9251,1.95 762.875,0 45.1203,-45.12015 45.1202,-146.31735 0,-191.4375 -243.3784,0.19286 -543.0679,1.62143 -762.875,0 z m 0,257.25 c -45.12,45.12015 -45.1201,146.31735 0,191.4375 207.6644,-3.05 520.9251,1.95 762.875,0 45.1203,-45.12015 45.1202,-146.31735 0,-191.4375 -243.3784,0.19286 -543.0679,1.62143 -762.875,0 z m 0,257.25 c -45.12,45.12015 -45.1201,146.31735 0,191.4375 207.6644,-3.05 520.9251,1.95 762.875,0 45.1203,-45.12015 45.1202,-146.31735 0,-191.4375 -243.3784,0.19286 -543.0679,1.62143 -762.875,0 z"
         id="path3929"
         inkscape:connector-curvature="0" />
      <path
         style="fill:#ffffff;fill-opacity:0.07211537;stroke:none"
         d="m -1468.5714,295.21932 c 0,0 342.8571,-2.85714 364.2857,0 21.4286,2.85715 40,20 41.4286,37.14286 1.4285,17.14286 -18.5715,35.7143 -38.5715,25.7143 -20,-10.00001 -52.8571,-24.28573 -132.8571,-22.85716 -80,1.42858 -151.4286,1.42858 -194.2857,-4.28571 -42.8572,-5.71429 -40,-35.71429 -40,-35.71429 z"
         id="path3931"
         inkscape:connector-curvature="0" />
      <path
         inkscape:connector-curvature="0"
         id="path3933"
         d="m -1702.8571,212.36218 555.7142,-4.28572 0,25.71429 c 0,0 -117.1428,-2.85714 -242.8571,11.42857 -125.7143,14.28571 -180,27.14286 -180,27.14286 l -144.2857,1.42857 0,-57.14286 z"
         style="fill:#000000;fill-opacity:0.15865383;stroke:none" />
      <path
         style="fill:#000000;fill-opacity:0.15865383;stroke:none"
         d="m -1702.8571,-44.780673 555.7142,-4.28572 0,25.71429 c 0,0 -117.1428,-2.85714 -242.8571,11.42857 -125.7143,14.2857103 -180,27.14286 -180,27.14286 l -144.2857,1.42857 0,-57.14286 z"
         id="path3935"
         inkscape:connector-curvature="0" />
      <path
         inkscape:connector-curvature="0"
         id="path3937"
         d="m -1468.5714,39.505037 c 0,0 342.8571,-2.85714 364.2857,0 21.4286,2.85715 40,20 41.4286,37.14286 1.4285,17.14286 -18.5715,35.714293 -38.5715,25.714293 -20,-10.000003 -52.8571,-24.285723 -132.8571,-22.857153 -80,1.42858 -151.4286,1.42858 -194.2857,-4.28571 -42.8572,-5.71429 -40,-35.71429 -40,-35.71429 z"
         style="fill:#ffffff;fill-opacity:0.07211537;stroke:none" />
      <path
         d="m -1248.5486,116.96093 c 0,112.69415 -91.3566,204.05081 -204.0508,204.05081 -112.6941,0 -204.0508,-91.35666 -204.0508,-204.05081 0,-112.6941517 91.3567,-204.050812 204.0508,-204.050812 112.6942,0 204.0508,91.3566603 204.0508,204.050812 z"
         sodipodi:ry="204.05081"
         sodipodi:rx="204.05081"
         sodipodi:cy="116.96093"
         sodipodi:cx="-1452.5994"
         id="path3939"
         style="color:#000000;fill:url(#linearGradient3967);fill-opacity:1;fill-rule:evenodd;stroke:none;stroke-width:1px;marker:none;visibility:visible;display:inline;overflow:visible;enable-background:accumulate"
         sodipodi:type="arc"
         transform="matrix(1.3194786,0,0,1.3194786,464.07463,-37.366532)" />
      <path
         sodipodi:type="arc"
         style="color:#000000;fill:url(#radialGradient3969);fill-opacity:1;fill-rule:evenodd;stroke:none;stroke-width:1px;marker:none;visibility:visible;display:inline;overflow:visible;enable-background:accumulate"
         id="path3941"
         sodipodi:cx="-1452.5994"
         sodipodi:cy="116.96093"
         sodipodi:rx="204.05081"
         sodipodi:ry="204.05081"
         d="m -1248.5486,116.96093 c 0,112.69415 -91.3566,204.05081 -204.0508,204.05081 -112.6941,0 -204.0508,-91.35666 -204.0508,-204.05081 0,-112.6941517 91.3567,-204.050812 204.0508,-204.050812 112.6942,0 204.0508,91.3566603 204.0508,204.050812 z" />
      <path
         style="fill:#ffffff;fill-opacity:0.07211537;stroke:none"
         d="m -1468.5714,-734.78068 c 0,0 342.8571,-2.85714 364.2857,0 21.4286,2.85715 40,20 41.4286,37.14286 1.4285,17.14286 -18.5715,35.71429 -38.5715,25.71429 -20,-10 -52.8571,-24.28572 -132.8571,-22.85715 -80,1.42858 -151.4286,1.42858 -194.2857,-4.28571 -42.8572,-5.71429 -40,-35.71429 -40,-35.71429 z"
         id="path3943"
         inkscape:connector-curvature="0" />
      <path
         style="fill:#000000;fill-opacity:0.15865383;stroke:none"
         d="m -1702.8571,-561.92353 555.7142,-4.28572 0,25.71429 c 0,0 -117.1428,-2.85714 -242.8571,11.42857 -125.7143,14.28571 -180,27.14286 -180,27.14286 l -144.2857,1.42857 0,-57.14286 z"
         id="path3945"
         inkscape:connector-curvature="0" />
      <path
         inkscape:connector-curvature="0"
         id="path3947"
         d="m -1468.5714,-474.78068 c 0,0 342.8571,-2.85714 364.2857,0 21.4286,2.85715 40,20 41.4286,37.14286 1.4285,17.14286 -18.5715,35.71429 -38.5715,25.71429 -20,-10 -52.8571,-24.28572 -132.8571,-22.85715 -80,1.42858 -151.4286,1.42858 -194.2857,-4.28571 -42.8572,-5.71429 -40,-35.71429 -40,-35.71429 z"
         style="fill:#ffffff;fill-opacity:0.07211537;stroke:none" />
      <path
         inkscape:connector-curvature="0"
         id="path3949"
         d="m -1702.8571,-301.92353 555.7142,-4.28572 0,25.71429 c 0,0 -117.1428,-2.85714 -242.8571,11.42857 -125.7143,14.28571 -180,27.14286 -180,27.14286 l -144.2857,1.42857 0,-57.14286 z"
         style="fill:#000000;fill-opacity:0.15865383;stroke:none" />
      <path
         style="fill:#ffffff;fill-opacity:0.07211537;stroke:none"
         d="m -1468.5714,-217.63782 c 0,0 342.8571,-2.85714 364.2857,0 21.4286,2.85715 40,20 41.4286,37.14286 1.4285,17.14286 -18.5715,35.71429 -38.5715,25.71429 -20,-10 -52.8571,-24.28572 -132.8571,-22.85715 -80,1.42858 -151.4286,1.42858 -194.2857,-4.28571 -42.8572,-5.71429 -40,-35.71429 -40,-35.71429 z"
         id="path3951"
         inkscape:connector-curvature="0" />
      <path
         style="fill:#000000;fill-opacity:0.15865383;stroke:none"
         d="m -1702.8571,468.07647 555.7142,-4.28572 0,25.71429 c 0,0 -117.1428,-2.85714 -242.8571,11.42857 -125.7143,14.28571 -180,27.14286 -180,27.14286 l -144.2857,1.42857 0,-57.14286 z"
         id="path3953"
         inkscape:connector-curvature="0" />
      <path
         inkscape:connector-curvature="0"
         id="path3955"
         d="m -1468.5714,552.36218 c 0,0 342.8571,-2.85714 364.2857,0 21.4286,2.85715 40,20 41.4286,37.14286 1.4285,17.14286 -18.5715,35.7143 -38.5715,25.7143 -20,-10.00001 -52.8571,-24.28573 -132.8571,-22.85716 -80,1.42858 -151.4286,1.42858 -194.2857,-4.28571 -42.8572,-5.71429 -40,-35.71429 -40,-35.71429 z"
         style="fill:#ffffff;fill-opacity:0.07211537;stroke:none" />
      <path
         inkscape:connector-curvature="0"
         id="path3957"
         d="m -1702.8571,725.21933 555.7142,-4.28572 0,25.71429 c 0,0 -117.1428,-2.85714 -242.8571,11.42857 -125.7143,14.28571 -180,27.14286 -180,27.14286 l -144.2857,1.42857 0,-57.14286 z"
         style="fill:#000000;fill-opacity:0.15865383;stroke:none" />
      <path
         style="fill:#ffffff;fill-opacity:0.07211537;stroke:none"
         d="m -1468.5714,810.93361 c 0,0 342.8571,-2.85714 364.2857,0 21.4286,2.85715 40,20 41.4286,37.14286 1.4285,17.14286 -18.5715,35.7143 -38.5715,25.7143 -20,-10.00001 -52.8571,-24.28573 -132.8571,-22.85716 -80,1.42858 -151.4286,1.42858 -194.2857,-4.28571 -42.8572,-5.71429 -40,-35.71429 -40,-35.71429 z"
         id="path3959"
         inkscape:connector-curvature="0" />
      <path
         style="fill:#000000;fill-opacity:0.15865383;stroke:none"
         d="m -1702.8571,983.79076 555.7142,-4.28572 0,25.71426 c 0,0 -117.1428,-2.8571 -242.8571,11.4286 -125.7143,14.2857 -180,27.1429 -180,27.1429 l -144.2857,1.4285 0,-57.14283 z"
         id="path3961"
         inkscape:connector-curvature="0" />
    </g>
  </g>
</svg>
